<svg width="30" height="20" viewBox="0 0 30 20" fill="none" xmlns="http://www.w3.org/2000/svg">
<g clip-path="url(#clip0)">
<path d="M28.75 16.5711L1.25 16.5711C0.918482 16.5711 0.600538 16.7216 0.366118 16.9895C0.131699 17.2574 3.97271e-06 17.6208 3.93959e-06 17.9997C3.90646e-06 18.3785 0.131699 18.7419 0.366118 19.0098C0.600538 19.2777 0.918482 19.4282 1.25 19.4282L28.75 19.4282C29.0815 19.4282 29.3995 19.2777 29.6339 19.0098C29.8683 18.7419 30 18.3785 30 17.9997C30 17.6208 29.8683 17.2574 29.6339 16.9895C29.3995 16.7216 29.0815 16.5711 28.75 16.5711Z" fill="white"/>
<path d="M28.125 8.71415L1.875 8.71415C1.37772 8.71415 0.900809 8.86466 0.549177 9.13257C0.197546 9.40047 2.06536e-06 9.76384 2.03224e-06 10.1427C1.99912e-06 10.5216 0.197546 10.885 0.549177 11.1529C0.900808 11.4208 1.37772 11.5713 1.875 11.5713L28.125 11.5713C28.6223 11.5713 29.0992 11.4208 29.4508 11.1529C29.8025 10.885 30 10.5216 30 10.1427C30 9.76384 29.8025 9.40048 29.4508 9.13257C29.0992 8.86466 28.6223 8.71415 28.125 8.71415Z" fill="white"/>
<path d="M1.875 3.71435L28.125 3.71436C28.6223 3.71436 29.0992 3.56385 29.4508 3.29594C29.8025 3.02803 30 2.66467 30 2.28579C30 1.90691 29.8025 1.54354 29.4508 1.27563C29.0992 1.00772 28.6223 0.857216 28.125 0.857216L1.875 0.857213C1.37772 0.857213 0.900809 1.00772 0.549177 1.27563C0.197546 1.54354 2.06536e-06 1.9069 2.03224e-06 2.28578C1.99912e-06 2.66466 0.197546 3.02803 0.549177 3.29594C0.900808 3.56384 1.37772 3.71435 1.875 3.71435Z" fill="white"/>
</g>
<defs>
<clipPath id="clip0">
<rect width="30" height="20" fill="white" transform="translate(30 20) rotate(-180)"/>
</clipPath>
</defs>
</svg>
