<svg width="75" height="74" viewBox="0 0 75 74" fill="none" xmlns="http://www.w3.org/2000/svg">
<path opacity="0.6" fill-rule="evenodd" clip-rule="evenodd" d="M65.85 31.232C66.4026 30.6451 66.9719 30.0128 67.5427 29.3378C72.0646 23.9922 74.3574 18.8534 74.3574 14.0637C74.3574 6.3091 67.9834 0 60.1487 0C54.4254 0 49.2866 3.37148 47.0572 8.5892C46.8234 9.13603 47.0819 9.76691 47.6342 9.99802C48.1865 10.2291 48.8241 9.97353 49.0576 9.42684C50.9466 5.00638 55.3001 2.14995 60.1487 2.14995C66.7857 2.14995 72.1852 7.49454 72.1852 14.0638C72.1852 22.9475 62.7622 31.4587 60.1483 33.6482C59.5722 33.1663 58.6655 32.3777 57.6024 31.3462C57.4963 31.1381 57.325 30.9732 57.1193 30.8711C53.3692 27.1337 48.1122 20.7094 48.1122 14.0638C48.1122 13.47 47.6261 12.9888 47.0261 12.9888C46.4263 12.9888 45.9399 13.47 45.9399 14.0638C45.9399 18.8534 48.2327 23.9922 52.7547 29.338C53.3254 30.0125 53.8942 30.6445 54.4465 31.2313C51.6467 32.064 50.0304 33.4812 50.0304 35.1879C50.0304 36.6272 51.21 37.8957 53.3522 38.7595C55.185 39.4988 57.5987 39.906 60.1486 39.906C62.6983 39.906 65.112 39.4988 66.945 38.7595C69.0867 37.8955 70.2663 36.627 70.2663 35.1877C70.2662 33.4842 68.6487 32.0657 65.85 31.232ZM60.1484 37.7558C55.0073 37.7558 52.2027 36.0593 52.2027 35.1876C52.2027 34.6197 53.4785 33.5804 56.2027 33.0071C58.0358 34.7725 59.3963 35.8215 59.4841 35.8889C59.6799 36.0388 59.9144 36.1137 60.1489 36.1137C60.3834 36.1137 60.6177 36.0388 60.8136 35.8889C60.9014 35.8217 62.2617 34.7726 64.0947 33.0074C65.3084 33.2636 66.3598 33.6389 67.0956 34.0822C67.721 34.4593 68.0943 34.8726 68.0943 35.1876C68.094 36.0593 65.2895 37.7558 60.1484 37.7558ZM0.357422 40.0117C0.357422 30.1003 8.50411 22.0368 18.5177 22.0368C28.5312 22.0368 36.6779 30.1003 36.6778 40.012C36.6778 44.2148 35.2633 48.6997 32.4736 53.3424C32.1671 53.8527 31.5005 54.0202 30.9849 53.7168C30.4693 53.4134 30.3 52.7537 30.6066 52.2433C33.1937 47.9378 34.5055 43.8226 34.5055 40.012C34.5055 31.2862 27.3333 24.1871 18.5175 24.1871C9.70178 24.1871 2.52954 31.2862 2.52954 40.012C2.52954 48.7879 9.46612 57.2497 14.3857 62.1474C14.6238 62.2528 14.8189 62.4418 14.93 62.6827C16.4781 64.1882 17.7776 65.3045 18.5181 65.9168C19.2669 65.2985 20.5865 64.1669 22.1547 62.6415C22.2598 62.4386 22.4276 62.2777 22.6283 62.1763C24.3788 60.4384 26.385 58.2505 28.2385 55.761C28.5943 55.283 29.2745 55.1813 29.7571 55.5331C30.24 55.8854 30.343 56.5582 29.9871 57.0363C28.452 59.0982 26.8341 60.9467 25.3304 62.5179C29.0941 63.5359 31.3546 65.3643 31.3546 67.4963C31.3546 71.2732 24.7405 73.3115 18.5171 73.3115C12.2938 73.3115 5.67957 71.2734 5.67957 67.4963C5.67957 65.3626 7.9408 63.5346 11.707 62.5171C10.8782 61.6509 10.0145 60.7016 9.14787 59.6771C3.31491 52.7818 0.357422 46.1654 0.357422 40.0117ZM18.5177 68.3776C18.2832 68.3776 18.0485 68.3027 17.853 68.1528C17.7375 68.0643 15.92 66.6629 13.4873 64.3078C9.82214 65.0472 7.85183 66.4702 7.85183 67.4964C7.85183 68.9907 12.0065 71.1617 18.5172 71.1617C21.519 71.1617 24.3245 70.6968 26.4169 69.8527C28.1229 69.1647 29.1827 68.2617 29.1827 67.4964C29.1827 66.4716 27.2129 65.0479 23.5498 64.3085C21.1306 66.6497 19.3156 68.0507 19.1824 68.1528C18.9867 68.3027 18.7522 68.3776 18.5177 68.3776ZM13.7942 33.7486C15.1667 32.7329 16.8003 32.1961 18.5182 32.1961C22.8719 32.1961 26.4141 35.7022 26.4143 40.0117C26.4143 44.3212 22.8721 47.8271 18.5183 47.8271C14.1644 47.8271 10.6223 44.321 10.6223 40.0117C10.6223 39.2779 10.7252 38.5515 10.9278 37.8523C11.0935 37.2817 11.6951 36.9524 12.2715 37.1156C12.8479 37.2795 13.1811 37.8749 13.0156 38.4455C12.8688 38.9515 12.7943 39.4786 12.7943 40.0117C12.7943 43.1354 15.3619 45.677 18.518 45.677C21.6741 45.677 24.2417 43.1356 24.2417 40.0117C24.2417 36.8876 21.6741 34.3462 18.518 34.3462C17.2726 34.3462 16.0888 34.7351 15.0948 35.4707C14.6146 35.8259 13.9339 35.7287 13.5746 35.2533C13.2155 34.7778 13.3139 34.1041 13.7942 33.7486ZM53.8286 14.064C53.8286 10.6144 56.6638 7.80827 60.1486 7.80827C63.6335 7.80827 66.4687 10.6146 66.4687 14.064C66.4687 17.5133 63.6335 20.3194 60.1486 20.3194C56.6637 20.3194 53.8286 17.5132 53.8286 14.064ZM56.0008 14.0638C56.0008 16.3276 57.8614 18.1693 60.1488 18.1693C62.4359 18.1693 64.2965 16.3276 64.2967 14.0638C64.2967 11.7999 62.4359 9.95822 60.1488 9.95822C57.8615 9.95822 56.0008 11.8 56.0008 14.0638ZM46.0601 34.1126H45.5642C45.2031 34.1126 44.8403 34.1363 44.4853 34.1831C43.8909 34.2614 43.4729 34.8018 43.5519 35.3906C43.6247 35.9311 44.0911 36.324 44.6272 36.324C44.6749 36.324 44.7232 36.321 44.7719 36.3146C45.0321 36.2804 45.2987 36.263 45.5643 36.263H46.0601V36.2629C46.66 36.2629 47.1462 35.7818 47.1462 35.1878C47.1462 34.5939 46.66 34.1126 46.0601 34.1126ZM42.4641 66.3665H42.4692C43.0668 66.3665 43.5525 66.8445 43.5551 67.4367C43.5577 68.0303 43.0737 68.5139 42.4739 68.5166L41.0395 68.523H41.0344C40.4369 68.523 39.951 68.0449 39.9484 67.4529C39.9458 66.8592 40.4299 66.3757 41.0296 66.3729L42.4641 66.3665ZM47.3492 48.0376H45.9147C45.3148 48.0376 44.8286 48.519 44.8286 49.1126C44.8286 49.7064 45.3146 50.1877 45.9147 50.1877H47.3492C47.9491 50.1877 48.4353 49.7066 48.4353 49.1126C48.4353 48.519 47.9492 48.0376 47.3492 48.0376ZM40.0595 36.2417C40.5007 35.8394 41.1876 35.8668 41.5942 36.303C42.0009 36.7394 41.9733 37.4196 41.5323 37.8221C41.2353 38.0933 40.9651 38.3957 40.7293 38.7206C40.5171 39.013 40.1841 39.1686 39.8463 39.1686C39.6268 39.1686 39.4052 39.103 39.2135 38.9667C38.7263 38.6203 38.6149 37.9486 38.9648 37.4662C39.2863 37.0232 39.6546 36.6113 40.0595 36.2417ZM48.2075 66.3405H48.2025L46.7681 66.3469C46.1684 66.3495 45.6843 66.8332 45.6869 67.4268C45.6895 68.0189 46.1755 68.497 46.7729 68.497H46.778L48.2123 68.4906C48.8121 68.488 49.2961 68.0043 49.2935 67.4107C49.2908 66.8186 48.805 66.3405 48.2075 66.3405ZM36.7262 66.3921H36.7313C37.3289 66.3921 37.8147 66.8701 37.8173 67.4623C37.8199 68.0559 37.3358 68.5395 36.7361 68.5422L35.3016 68.5486H35.2965C34.6988 68.5486 34.2133 68.0705 34.2105 67.4785C34.2079 66.8848 34.692 66.4013 35.2917 66.3986L36.7262 66.3921ZM42.3958 47.134C42.0545 46.9209 41.7335 46.672 41.442 46.3947C41.0096 45.983 40.3219 45.9966 39.9063 46.4242C39.4904 46.852 39.5038 47.5326 39.9361 47.9441C40.3336 48.3226 40.7712 48.6618 41.2368 48.9524C41.4167 49.0648 41.6171 49.1184 41.8153 49.1184C42.1758 49.1184 42.5283 48.941 42.735 48.6167C43.0552 48.1146 42.9031 47.4507 42.3958 47.134ZM39.6165 42.1503C39.6165 42.5318 39.6535 42.9129 39.7264 43.2835C39.841 43.8663 39.4568 44.4307 38.8679 44.5443C38.7978 44.5579 38.7278 44.5643 38.6591 44.5643C38.1497 44.5643 37.6952 44.2082 37.5942 43.6949C37.4947 43.1893 37.4442 42.6697 37.4442 42.1505L37.4447 42.0657C37.4516 41.4762 37.9365 41.0031 38.5305 41.0031L38.5434 41.0032C39.1433 41.0101 39.6239 41.497 39.6168 42.0906L39.6165 42.1503ZM53.0875 48.0376H51.653C51.0531 48.0376 50.5669 48.519 50.5669 49.1126C50.5669 49.7064 51.0531 50.1877 51.653 50.1877H53.0875C53.6874 50.1877 54.1736 49.7066 54.1736 49.1126C54.1736 48.519 53.6874 48.0376 53.0875 48.0376ZM69.1954 49.344C69.6593 49.6024 70.1066 49.8994 70.5251 50.2263C70.996 50.5941 71.0761 51.2703 70.7043 51.7363C70.49 52.005 70.172 52.1453 69.8511 52.1453C69.6153 52.1453 69.3784 52.0698 69.1787 51.9139C68.8485 51.6557 68.4952 51.4215 68.1292 51.2172C67.6065 50.9259 67.4217 50.2701 67.716 49.7529C68.0106 49.2356 68.6733 49.0525 69.1954 49.344ZM66.4931 67.1108C66.4107 66.5227 65.8616 66.1111 65.2686 66.193C64.9129 66.2417 64.5486 66.2673 64.1853 66.2687L63.9821 66.2697C63.3822 66.2727 62.8983 66.7564 62.9012 67.3499C62.9042 67.9419 63.3899 68.4198 63.9872 68.4198H63.9925L64.1953 68.4188C64.6541 68.4168 65.1152 68.3846 65.5659 68.3229C66.1603 68.2416 66.5753 67.6987 66.4931 67.1108ZM69.751 64.0508C70.185 63.6411 70.8726 63.6576 71.2865 64.0877C71.7002 64.5174 71.6837 65.198 71.2493 65.6076C70.8635 65.9715 70.4459 66.3082 70.0081 66.6088C69.8193 66.7382 69.6038 66.8004 69.3902 66.8004C69.0461 66.8004 68.7077 66.6389 68.4967 66.3377C68.1551 65.8496 68.2776 65.1798 68.7705 64.8416C69.1164 64.6042 69.4462 64.3381 69.751 64.0508ZM73.4008 58.8667C72.8121 58.7568 72.2436 59.1406 72.1325 59.7241C72.0545 60.1331 71.9437 60.5391 71.8027 60.9308C71.6013 61.49 71.896 62.105 72.461 62.3044C72.5815 62.347 72.7048 62.3671 72.8259 62.3671C73.272 62.3671 73.6904 62.0928 73.8489 61.6529C74.0279 61.1561 74.1686 60.641 74.2674 60.122C74.3781 59.5385 73.9901 58.9763 73.4008 58.8667ZM73.4838 53.9242C73.7097 54.4034 73.8987 54.9034 74.0459 55.411C74.2113 55.9816 73.8781 56.577 73.3017 56.7409C73.2015 56.7693 73.1009 56.7829 73.0015 56.7829C72.5293 56.7829 72.0947 56.4756 71.958 56.0041C71.8421 55.6046 71.6931 55.2105 71.5152 54.8333C71.2616 54.2952 71.4967 53.6555 72.0402 53.4044C72.5843 53.1535 73.23 53.3861 73.4838 53.9242ZM58.8256 48.0376H57.3911C56.7912 48.0376 56.305 48.519 56.305 49.1126C56.305 49.7064 56.791 50.1877 57.3911 50.1877H58.8256C59.4255 50.1877 59.9117 49.7066 59.9117 49.1126C59.9117 48.519 59.4255 48.0376 58.8256 48.0376ZM53.9405 66.3146H53.9456C54.543 66.3146 55.0289 66.7927 55.0315 67.3848C55.0341 67.9784 54.5501 68.462 53.9503 68.4647L52.5159 68.4712H52.5108C51.9133 68.4712 51.4276 67.993 51.4248 67.401C51.4222 66.8073 51.9062 66.3236 52.506 66.3211L53.9405 66.3146ZM64.6116 48.0479C64.4579 48.041 64.3023 48.0377 64.1492 48.0377H63.1292C62.5293 48.0377 62.0431 48.5191 62.0431 49.1128C62.0431 49.7066 62.5291 50.1878 63.1292 50.1878H64.1492V50.1877C64.272 50.1877 64.3941 50.1904 64.5155 50.1957C64.5319 50.1965 64.5482 50.1968 64.5644 50.1968C65.142 50.1968 65.6229 49.7464 65.6485 49.1695C65.675 48.5761 65.2108 48.0741 64.6116 48.0479ZM59.6786 66.289H59.6837C60.2813 66.289 60.767 66.767 60.7696 67.3592C60.7722 67.9529 60.2882 68.4364 59.6884 68.4391L58.2539 68.4456H58.2489C57.6514 68.4456 57.1656 67.9675 57.1629 67.3754C57.1603 66.7817 57.6443 66.2981 58.2441 66.2955L59.6786 66.289Z" fill="#0E577B"/>
</svg>
