<svg width="75" height="72" viewBox="0 0 75 72" fill="none" xmlns="http://www.w3.org/2000/svg">
<path opacity="0.6" fill-rule="evenodd" clip-rule="evenodd" d="M37.3603 4.35938C37.959 4.35938 38.4443 3.88716 38.4443 3.30469V1.05469C38.4443 0.472219 37.959 0 37.3603 0C36.7617 0 36.2763 0.472219 36.2763 1.05469V3.30469C36.2763 3.88716 36.7617 4.35938 37.3603 4.35938ZM53.6369 55.1002L65.3845 42.2149C65.5668 42.0198 65.6942 41.7804 65.7525 41.5251C65.8609 41.0568 65.7437 40.5762 65.4306 40.2065C65.4234 40.1979 65.4159 40.1895 65.4084 40.181L61.0893 35.3878L66.3307 29.6391C66.5188 29.4305 66.652 29.1763 66.7152 28.9066C66.8357 28.3989 66.7104 27.8769 66.3715 27.4727L66.3638 27.4635C66.3537 27.4511 66.3432 27.4389 66.3325 27.427L54.2815 14.0536C54.1596 13.9185 54.0056 13.8185 53.8356 13.7586C53.8324 13.7573 53.8293 13.7558 53.8262 13.7544L53.8208 13.7518C53.8148 13.7489 53.8087 13.7459 53.8023 13.7435L44.5594 10.3301C44.0713 10.15 43.5593 10.0586 43.0374 10.0586H41.2667C40.6681 10.0586 40.1827 10.5308 40.1827 11.1133C40.1827 11.6958 40.6681 12.168 41.2667 12.168H43.0374C43.2955 12.168 43.5489 12.2131 43.7902 12.3023L50.9356 14.9411L45.09 18.3306H29.6288L23.7834 14.9411L30.9296 12.3023C31.1709 12.2131 31.4241 12.168 31.6823 12.168H36.2451C36.8438 12.168 37.3291 11.6958 37.3291 11.1133C37.3291 10.5308 36.8438 10.0586 36.2451 10.0586H31.6823C31.1604 10.0586 30.6483 10.15 30.1602 10.3301L20.9166 13.7433C20.8521 13.767 20.7924 13.7982 20.735 13.8325C20.6313 13.8899 20.5366 13.9636 20.4562 14.0529L17.1021 17.7698C16.7071 18.2074 16.7516 18.8738 17.2015 19.2581C17.4074 19.4339 17.6623 19.5203 17.9163 19.5203C18.2173 19.5203 18.5169 19.3989 18.7313 19.1614L21.5125 16.0795L28.0714 19.8827L24.1619 33.9807L10.5975 28.1749L15.3942 22.8594C15.7892 22.4218 15.7447 21.7554 15.2947 21.371C14.845 20.9867 14.1599 21.03 13.765 21.4678L8.38788 27.4263C8.3769 27.4384 8.36635 27.4508 8.35594 27.4633L8.34987 27.4708C8.01051 27.8727 7.88231 28.4117 8.00401 28.9037C8.0676 29.1747 8.20129 29.429 8.39453 29.6432L41.7649 66.2057C41.9847 66.4519 42.303 66.5931 42.6383 66.5931C42.9736 66.5931 43.2919 66.4519 43.5042 66.2141L50.2806 58.7815C50.6779 58.3457 50.6368 57.6791 50.1889 57.2926C49.7412 56.9061 49.0561 56.9461 48.6586 57.3817L47.2684 58.9067L53.1719 47.383L60.726 44.146L52.0152 53.7002C51.6179 54.136 51.6589 54.8025 52.1068 55.1891C52.3132 55.3673 52.5701 55.4547 52.8257 55.4547C53.1248 55.455 53.4227 55.3351 53.6369 55.1002ZM53.0928 45.112L50.1518 34.552L54.9475 31.7712L58.8358 36.0866L58.8409 36.0924L58.8487 36.1009L63.1031 40.8226L53.0928 45.112ZM30.1624 20.4397H44.5564L46.259 26.551H38.2068C37.7709 26.551 37.3431 26.6272 36.9356 26.7778L29.7292 29.4388C29.6687 29.4612 29.6123 29.49 29.558 29.5217C29.4529 29.5793 29.3571 29.6536 29.2757 29.7436L26.8312 32.4521L30.1624 20.4397ZM37.2048 35.1092H48.0608L50.9594 45.5169H34.3185L37.2048 35.1092ZM48.5937 32.9999H36.6718L32.5959 30.6365L37.7046 28.75C37.8656 28.6906 38.0346 28.6605 38.2068 28.6605H47.0592C47.2314 28.6605 47.4003 28.6906 47.5615 28.75L52.6697 30.6365L48.5937 32.9999ZM30.3264 31.7762L35.1139 34.5521L32.1854 45.112L22.1632 40.8217L30.3264 31.7762ZM32.1079 47.3834L38.0145 58.9165L24.5395 44.1436L32.1079 47.3834ZM34.6546 47.6263H50.6247L42.6385 63.2155L34.6546 47.6263ZM58.7439 32.7847L61.7321 31.5043L59.6489 33.7891L58.7439 32.7847ZM53.218 16.073L64.1232 28.1749L57.2455 31.1218L56.0044 29.7444C55.8837 29.6104 55.7311 29.5111 55.5629 29.4511C55.5587 29.4494 55.5547 29.4474 55.5507 29.4455L55.5507 29.4455C55.546 29.4432 55.5413 29.4409 55.5364 29.4391L48.5955 26.8758L46.6473 19.8829L53.218 16.073ZM12.9879 31.5026L23.5921 36.0415L20.3772 39.6039C18.1777 37.1935 15.4193 34.1692 12.9879 31.5026ZM36.2764 68.6953C36.2764 68.1128 36.7617 67.6406 37.3604 67.6406C37.959 67.6406 38.4443 68.1128 38.4443 68.6953V70.9453C38.4443 71.5278 37.959 72 37.3604 72C36.7617 72 36.2764 71.5278 36.2764 70.9453V68.6953ZM19.6181 8.21216C19.8188 8.55051 20.1832 8.73965 20.5578 8.73965C20.7416 8.73965 20.9281 8.69408 21.0988 8.59818C21.6172 8.30694 21.7948 7.6619 21.4955 7.15747L20.3393 5.20898C20.0399 4.70455 19.377 4.53159 18.8585 4.82296C18.3401 5.11419 18.1625 5.75924 18.4618 6.26366L19.6181 8.21216ZM53.6154 63.4015C54.1338 63.1102 54.7968 63.283 55.0961 63.7876L56.2524 65.736C56.5517 66.2405 56.3741 66.8855 55.8556 67.1767C55.6849 67.2726 55.4985 67.3182 55.3146 67.3182C54.94 67.3182 54.5757 67.1291 54.3749 66.7907L53.2186 64.8422C52.9193 64.3378 53.097 63.6928 53.6154 63.4015ZM5.71011 19.4405L7.71274 20.5655C7.88343 20.6614 8.06987 20.7069 8.25372 20.7069C8.62834 20.7069 8.99271 20.5177 9.19346 20.1795C9.49278 19.675 9.31515 19.03 8.79672 18.7388L6.7941 17.6138C6.27552 17.3224 5.61255 17.4954 5.31337 17.9998C5.01405 18.5042 5.19168 19.1492 5.71011 19.4405ZM67.004 51.4341L69.0067 52.5591C69.5251 52.8503 69.7027 53.4953 69.4034 53.9998C69.2026 54.338 68.8383 54.5273 68.4637 54.5273C68.2798 54.5273 68.0934 54.4817 67.9227 54.3858L65.9201 53.2608C65.4016 52.9696 65.224 52.3245 65.5233 51.8201C65.8227 51.3157 66.4855 51.1427 67.004 51.4341ZM3.75391 34.9453H1.44141C0.842758 34.9453 0.357422 35.4175 0.357422 36C0.357422 36.5825 0.842758 37.0547 1.44141 37.0547H3.75391C4.35255 37.0547 4.83789 36.5825 4.83789 36C4.83789 35.4175 4.35255 34.9453 3.75391 34.9453ZM70.9619 34.9453H73.2744C73.8731 34.9453 74.3584 35.4175 74.3584 36C74.3584 36.5825 73.8731 37.0547 73.2744 37.0547H70.9619C70.3633 37.0547 69.8779 36.5825 69.8779 36C69.8779 35.4175 70.3633 34.9453 70.9619 34.9453ZM7.71274 51.4345L5.71011 52.5595C5.19168 52.8508 5.01405 53.4958 5.31337 54.0002C5.51413 54.3386 5.87849 54.5277 6.25311 54.5277C6.43696 54.5277 6.6234 54.4822 6.7941 54.3863L8.79672 53.2613C9.31515 52.97 9.49278 52.325 9.19346 51.8206C8.89413 51.316 8.23117 51.1432 7.71274 51.4345ZM65.9201 18.7392L67.9227 17.6142C68.441 17.3229 69.1039 17.4956 69.4034 18.0002C69.7027 18.5046 69.5251 19.1496 69.0067 19.4409L67.004 20.5659C66.8334 20.6618 66.6469 20.7073 66.4631 20.7073C66.0884 20.7073 65.7241 20.5182 65.5233 20.1799C65.224 19.6754 65.4016 19.0304 65.9201 18.7392ZM21.0988 63.4015C20.5803 63.1101 19.9174 63.2831 19.6181 63.7875L18.4618 65.736C18.1625 66.2405 18.3401 66.8855 18.8585 67.1767C19.0292 67.2726 19.2157 67.3182 19.3995 67.3182C19.7742 67.3182 20.1385 67.1289 20.3393 66.7907L21.4955 64.8422C21.7948 64.3378 21.6172 63.6928 21.0988 63.4015ZM54.1564 8.73965C53.9725 8.73965 53.7861 8.69408 53.6154 8.59818C53.097 8.30694 52.9193 7.6619 53.2186 7.15747L54.3749 5.20898C54.6742 4.70455 55.3372 4.53159 55.8556 4.82296C56.3741 5.11419 56.5517 5.75924 56.2524 6.26366L55.0961 8.21216C54.8954 8.55036 54.531 8.73965 54.1564 8.73965Z" fill="#0E577B"/>
</svg>
