<svg width="75" height="71" viewBox="0 0 75 71" fill="none" xmlns="http://www.w3.org/2000/svg">
<path opacity="0.6" fill-rule="evenodd" clip-rule="evenodd" d="M73.6884 52.5839L68.5999 47.6241C68.1669 47.2022 67.5916 46.9698 66.979 46.9698C66.367 46.9698 65.7911 47.2022 65.3587 47.6241L65.2407 47.7389L64.9064 47.4137C64.4937 47.011 64.1742 46.5425 63.9574 46.0322C63.9382 45.9646 63.9128 45.8987 63.88 45.8366C63.7141 45.3829 63.6277 44.9 63.6277 44.404V43.001C63.7265 43.0516 63.8343 43.0884 63.95 43.1076C64.0121 43.118 64.0737 43.123 64.1347 43.123C64.649 43.123 65.104 42.7659 65.1994 42.2584C65.3152 41.6882 64.9352 41.1339 64.3486 41.0197C64.0906 40.9697 63.8354 41.0131 63.6209 41.1262C63.5543 39.6277 62.9248 38.228 61.8295 37.1602L56.8929 32.3487C55.7852 31.2693 54.3122 30.6749 52.7455 30.6749C51.5328 30.6749 50.3777 31.0325 49.4032 31.6945L48.8793 31.1819V19.119C48.8793 17.6649 48.3367 16.262 47.3521 15.1694C46.6515 14.3926 46.2659 13.3951 46.2659 12.3602V11.4763H46.3404C47.6039 11.4763 48.632 10.476 48.632 9.24609V2.23022C48.632 1.0003 47.6039 0 46.3404 0H26.0919C24.8284 0 23.8003 1.0003 23.8003 2.23022V9.24609C23.8003 10.476 24.8284 11.4763 26.0919 11.4763H26.259V11.9388C26.259 13.0759 25.8045 14.1449 24.9797 14.9485L22.7942 17.0788C21.6346 18.2093 20.996 19.7117 20.996 21.3102V28.1146C20.996 29.0391 21.2241 29.9119 21.6255 30.6854C20.1881 30.7661 18.8484 31.3489 17.822 32.3487L12.8853 37.1602C11.7257 38.2906 11.0872 39.7936 11.0872 41.3915V44.404C11.0872 45.5411 10.6333 46.61 9.80841 47.4137L9.47813 47.7356C9.47644 47.7367 9.47531 47.7378 9.47418 47.7389L9.35675 47.6241C8.92372 47.2022 8.34842 46.9698 7.73586 46.9698C7.12386 46.9698 6.54799 47.2022 6.11552 47.6241L1.02644 52.5839C0.134415 53.4534 0.134415 54.8685 1.02644 55.738L2.76929 57.436C3.19215 57.8485 3.87868 57.8491 4.30211 57.4376C4.72554 57.0256 4.72667 56.3582 4.30324 55.9457L2.56096 54.2472C2.51184 54.1994 2.51184 54.1219 2.56096 54.0742L7.65004 49.1144C7.69746 49.0682 7.77481 49.0677 7.82224 49.1144L8.70692 49.9768H8.70749L20.7877 61.7509L22.141 63.0703C22.1901 63.1181 22.1901 63.1956 22.141 63.2433L17.0525 68.2031C17.0045 68.2498 16.9271 68.2498 16.8797 68.2031L7.37227 58.9367C6.9494 58.5242 6.26288 58.5236 5.83945 58.9351C5.41545 59.347 5.41489 60.0145 5.83775 60.427L15.3458 69.6934C15.7782 70.1153 16.3541 70.3477 16.9667 70.3477C17.5787 70.3477 18.154 70.1153 18.587 69.6934L23.6755 64.7336C24.5675 63.8646 24.5675 62.4496 23.6755 61.58L23.6202 61.5262L24.2621 60.9005C25.0119 60.1694 26.0078 59.7299 27.0663 59.6635C28.5563 59.5695 29.9581 58.951 31.0133 57.9221L35.688 53.3639C37.0362 53.0195 38.0857 51.951 38.3708 50.6129C38.8513 50.8354 39.3882 50.9606 39.955 50.9606C41.9937 50.9606 43.6524 49.3451 43.6524 47.3588V44.8544C44.1188 45.0615 44.6365 45.178 45.1819 45.178C47.2206 45.178 48.8787 43.5624 48.8787 41.5761V34.1724L52.2131 37.4326C52.4248 37.6397 52.7031 37.743 52.9815 37.743C53.2581 37.743 53.5348 37.6408 53.7465 37.4359C54.1705 37.025 54.1722 36.3576 53.7499 35.9445L50.9699 33.2265C51.5079 32.9381 52.1143 32.7843 52.7455 32.7843C53.7324 32.7843 54.6605 33.1589 55.3583 33.8395L60.295 38.6505C61.0459 39.3827 61.4597 40.3561 61.4597 41.3915V44.404C61.4597 46.1041 62.1389 47.7021 63.3719 48.904L63.7084 49.2319L62.1361 50.7645L52.6264 60.0331L52.0962 59.5162C52.0906 59.5113 52.0855 59.5058 52.0798 59.5009L51.9867 59.4097C50.8643 58.316 49.3733 57.6584 47.7891 57.5585C46.8253 57.4975 45.9186 57.0976 45.2327 56.4296L41.6708 52.9827C41.2462 52.5718 40.5597 52.5734 40.1374 52.9865C39.7157 53.3996 39.7173 54.0676 40.1419 54.4779L43.7016 57.9221C44.7567 58.951 46.1586 59.5695 47.6491 59.6635C48.7071 59.7299 49.703 60.1694 50.4527 60.9L50.5052 60.951C50.5335 60.9824 50.5634 61.0115 50.595 61.0389L51.0947 61.5256L51.0393 61.58C50.1473 62.4496 50.1473 63.8641 51.0393 64.7336L56.1279 69.6934C56.5609 70.1153 57.1362 70.3477 57.7487 70.3477C58.3607 70.3477 58.9366 70.1153 59.3696 69.6934L73.6884 55.7375C74.5804 54.8679 74.5804 53.4534 73.6884 52.5839ZM64.3543 42.0963L64.334 42.093L64.1364 42.054L64.3543 42.0963ZM29.4788 56.4318C28.7962 57.0976 27.8895 57.4975 26.9263 57.5585C25.3416 57.6584 23.8505 58.316 22.7281 59.4097L22.0885 60.0331L21.5126 59.4717L21.5053 59.4645C21.5004 59.4596 21.4955 59.4547 21.4906 59.4503L11.0064 49.2319L11.3429 48.904C12.576 47.7021 13.2551 46.1041 13.2551 44.404V41.3915C13.2551 40.3561 13.6684 39.3827 14.4199 38.6505L19.3565 33.8395C20.0543 33.1589 20.9825 32.7843 21.9694 32.7843C22.6022 32.7843 23.2109 32.9392 23.7506 33.2298L20.9661 35.9434C20.5432 36.3554 20.5438 37.0234 20.9672 37.4348C21.179 37.6403 21.4562 37.743 21.7334 37.743C22.0111 37.743 22.2889 37.6397 22.5006 37.4337L25.8265 34.1917V47.3588C25.8265 49.3451 27.4853 50.9606 29.5239 50.9606C30.0987 50.9606 30.6429 50.8321 31.1285 50.6036C31.3486 51.6489 32.0352 52.53 32.9656 53.0321L29.4788 56.4318ZM46.7113 41.5767C46.7113 42.3995 46.0248 43.0692 45.1819 43.0692C44.3384 43.0692 43.6524 42.3995 43.6524 41.5767V29.8119C43.6524 29.2297 43.1675 28.7573 42.5685 28.7573C41.9694 28.7573 41.4845 29.2297 41.4845 29.8119V47.3593C41.4845 48.1822 40.7985 48.8513 39.955 48.8513C39.1979 48.8513 38.5696 48.3118 38.4482 47.606V29.7999C38.4482 29.217 37.9632 28.7452 37.3642 28.7452C37.1717 28.7452 36.9904 28.7946 36.8335 28.8803C36.4908 29.0577 36.2576 29.4082 36.2576 29.8119V47.3588C36.2576 47.4928 36.2655 47.6241 36.2802 47.7543V49.8796C36.2802 50.7025 35.5943 51.3721 34.7508 51.3721C33.9079 51.3721 33.2219 50.7025 33.2219 49.8796V29.7872C33.2219 29.205 32.7364 28.7325 32.1379 28.7325C31.5389 28.7325 31.0534 29.205 31.0534 29.7872V47.3588C31.0534 48.1816 30.3674 48.8513 29.5245 48.8513C28.681 48.8513 27.9951 48.1816 27.9951 47.3588V27.7399C27.9951 27.1571 27.5095 26.6847 26.9111 26.6847C26.3121 26.6847 25.8271 27.1571 25.8271 27.7399V31.3687C25.7362 31.3973 25.6481 31.4374 25.5663 31.4901C24.1644 30.9776 23.164 29.6581 23.164 28.1146V21.3102C23.164 20.2747 23.5778 19.3013 24.3287 18.5691L26.5142 16.4388C27.7478 15.2369 28.427 13.639 28.427 11.9388V11.4763H30.6062C31.2052 11.4763 31.6902 11.0039 31.6902 10.4216C31.6902 9.8388 31.2052 9.36694 30.6062 9.36694H26.0919C26.0236 9.36694 25.9682 9.31256 25.9682 9.24609V2.23022C25.9682 2.16376 26.0236 2.10937 26.0919 2.10937H46.3398C46.4087 2.10937 46.464 2.16376 46.464 2.23022V9.24609C46.464 9.31311 46.4087 9.36694 46.3398 9.36694H35.6953C35.0969 9.36694 34.6113 9.8388 34.6113 10.4216C34.6113 11.0039 35.0969 11.4763 35.6953 11.4763H44.0979V12.3602C44.0979 13.907 44.6743 15.3984 45.7216 16.5608C46.3596 17.2683 46.7113 18.1769 46.7113 19.119V41.5767ZM72.1539 54.2472L57.8351 68.2031C57.8114 68.2267 57.7826 68.2383 57.7487 68.2383C57.7154 68.2383 57.6866 68.2267 57.6624 68.2031L52.5739 63.2433C52.5247 63.1956 52.5247 63.1181 52.5739 63.0703L53.3931 62.2716L53.3936 62.2711L61.7059 54.1697L66.8926 49.1144C66.94 49.0677 67.0174 49.0677 67.0648 49.1144L72.1539 54.0742C72.203 54.1219 72.203 54.1994 72.1539 54.2472ZM22.616 13.1764C22.7899 13.1764 22.9666 13.1358 23.1297 13.0512C23.6582 12.7771 23.8575 12.1382 23.5758 11.6241C23.294 11.1105 22.638 10.9154 22.1096 11.1901L22.0966 11.1967C21.5687 11.4708 21.375 12.1064 21.6568 12.6205C21.851 12.9754 22.2281 13.1764 22.616 13.1764ZM47.4881 62.2226L47.0585 61.2547C47.605 61.0213 48.2452 61.2591 48.488 61.7897C48.7307 62.3198 48.4908 62.9395 47.9471 63.1784C47.9449 63.1795 47.9394 63.1819 47.9338 63.1842C47.9283 63.1865 47.9228 63.1889 47.9206 63.19C47.78 63.2493 47.6326 63.2778 47.4887 63.2778C47.0703 63.2778 46.6717 63.0411 46.4939 62.6439C46.2551 62.11 46.5063 61.4887 47.0551 61.2558L47.4881 62.2226ZM26.7432 61.9073L26.7567 61.9122C27.3202 62.1089 27.6126 62.7132 27.4099 63.2614C27.2513 63.692 26.8341 63.9596 26.3897 63.9596C26.2684 63.9596 26.1447 63.9398 26.0233 63.8975C25.4599 63.7003 25.1607 63.0938 25.3633 62.5456C25.5655 61.9974 26.1797 61.7106 26.7432 61.9073ZM30.5436 64.0172L30.7609 62.984C31.3492 63.0933 31.7348 63.6459 31.6219 64.2183C31.5231 64.7237 31.0686 65.0752 30.5588 65.0752C30.491 65.0752 30.4227 65.0686 30.3539 65.056C30.3522 65.0554 30.3358 65.0527 30.3341 65.0521C29.7464 64.9395 29.3642 64.3853 29.4799 63.8134C29.5956 63.2422 30.1658 62.8703 30.753 62.9829L30.5436 64.0172ZM39.1567 64.3721L39.0488 63.3229C39.6416 63.2625 40.178 63.6777 40.2446 64.254C40.3107 64.8308 39.89 65.351 39.2972 65.4185L39.2673 65.4218C39.2301 65.4251 39.1922 65.4273 39.155 65.4273C38.6062 65.4273 38.1353 65.023 38.0783 64.4803C38.0168 63.9008 38.4498 63.3828 39.0454 63.3234L39.1567 64.3721ZM34.8991 63.4558L34.8833 63.4553C34.286 63.4289 33.7869 63.8805 33.7598 64.4622C33.7333 65.0439 34.203 65.5367 34.8009 65.563C34.8073 65.5634 34.8137 65.5637 34.82 65.5639L34.8299 65.564L34.8511 65.5641C35.427 65.5641 35.9069 65.123 35.9329 64.5572C35.96 63.9755 35.4976 63.4822 34.8991 63.4558ZM43.1396 62.5846L43.4067 63.6069L43.1362 62.5857C42.5564 62.7307 42.2075 63.3059 42.3565 63.87C42.4824 64.3457 42.9228 64.6621 43.4055 64.6621C43.4953 64.6621 43.5862 64.6511 43.6771 64.6281L43.6845 64.6262L43.6957 64.6234L43.7059 64.6209C44.2812 64.4682 44.6177 63.8931 44.4641 63.3322C44.3105 62.7719 43.7172 62.4385 43.1396 62.5846ZM10.5808 25.0774C10.4108 25.0774 10.2386 25.0384 10.0777 24.9565C9.54817 24.6862 9.3438 24.0496 9.62044 23.5343C9.88805 23.0185 10.5328 22.8076 11.0663 23.0636C11.6038 23.3201 11.8251 23.9524 11.5609 24.4753L11.5417 24.5121C11.348 24.8719 10.9709 25.0774 10.5808 25.0774ZM8.55161 28.9242C8.66679 28.9621 8.78365 28.9802 8.89939 28.9802C9.35105 28.9802 9.77279 28.7028 9.92579 28.2634L9.9399 28.2216C10.1161 27.6652 9.79481 27.0747 9.22233 26.9038C8.65493 26.7335 8.05253 27.0401 7.8713 27.5894C7.68104 28.1403 7.98534 28.738 8.55161 28.9242ZM12.8529 21.4689C12.6316 21.4689 12.4086 21.403 12.2161 21.2668C11.7323 20.9245 11.625 20.2648 11.9773 19.7935L12.8541 20.4142L11.9807 19.7891C12.3296 19.3167 13.0071 19.2079 13.4932 19.5469C13.9787 19.8852 14.0922 20.5422 13.7444 21.0157L13.7303 21.0344C13.5186 21.3178 13.1877 21.4689 12.8529 21.4689ZM18.9367 15.4544C19.1642 15.4544 19.3935 15.3847 19.5894 15.2397C20.0726 14.8958 20.1771 14.2361 19.8237 13.7658C19.4697 13.2956 18.7916 13.194 18.3089 13.5379L18.2818 13.5571C17.8053 13.9092 17.7105 14.5722 18.0723 15.0364C18.2858 15.31 18.6093 15.4544 18.9367 15.4544ZM8.61819 45.663C8.15524 45.663 7.72729 45.3724 7.58389 44.9192L7.56978 44.873C7.41226 44.3111 7.7527 43.731 8.33026 43.5777C8.90443 43.4256 9.49441 43.7508 9.65758 44.3045C9.82808 44.8593 9.50683 45.446 8.93774 45.6157C8.8316 45.6476 8.72377 45.663 8.61819 45.663ZM15.6616 18.234C15.9434 18.234 16.2251 18.128 16.4379 17.917C16.8608 17.505 16.8608 16.8371 16.4379 16.4256C16.0145 16.0136 15.328 16.0136 14.9045 16.4256L14.8865 16.4432C14.4676 16.859 14.476 17.5259 14.9034 17.9335C15.114 18.1346 15.3878 18.234 15.6616 18.234ZM7.57836 39.4095C8.16777 39.3414 8.70581 39.7479 8.78203 40.3209C8.86502 40.8949 8.4557 41.4288 7.86572 41.5123C7.81209 41.52 7.75902 41.5239 7.70708 41.5239C7.17807 41.5239 6.71568 41.1481 6.63664 40.6241L6.63043 40.5818C6.55986 40.0033 6.98442 39.4788 7.57836 39.4095ZM7.42035 37.3002L7.43544 37.3004L7.43716 37.3004L7.4531 37.3007C8.03687 37.3007 8.51901 36.8486 8.53595 36.2768L8.53708 36.2317C8.53708 35.6489 8.05155 35.1771 7.4531 35.1771C6.8586 35.1771 6.37645 35.6418 6.36911 36.218C6.3533 36.7992 6.82359 37.2831 7.42035 37.3002ZM7.85044 33.0869C7.78664 33.0869 7.72284 33.0814 7.65792 33.0704C7.07019 32.9677 6.67838 32.4222 6.78113 31.8499C6.87542 31.2819 7.42362 30.8902 8.00908 30.9748C8.60189 31.0594 9.0112 31.5955 8.9237 32.1718C8.92144 32.1871 8.91918 32.2025 8.91636 32.2179C8.82207 32.7282 8.36533 33.0869 7.85044 33.0869ZM58.7913 21.5996C59.0014 21.8963 59.339 22.055 59.6834 22.055C59.8951 22.055 60.1096 21.9946 60.2971 21.8688C60.7899 21.5392 60.9147 20.8822 60.576 20.4021L59.6749 20.9888L60.5726 20.3972C60.2361 19.9149 59.562 19.7891 59.0668 20.1159C58.5711 20.4428 58.4419 21.0987 58.7778 21.581L58.7913 21.5996ZM63.3714 33.3792C63.3043 32.8002 63.7322 32.2778 64.3273 32.213C64.9184 32.1481 65.457 32.5623 65.5253 33.1397C65.6015 33.7109 65.1916 34.2377 64.6039 34.3196C64.552 34.3267 64.5 34.33 64.4492 34.33C63.9185 34.33 63.4544 33.9505 63.3771 33.4248L63.3714 33.3792ZM62.4979 29.2368L62.5024 29.2505C62.6413 29.7103 63.0732 30.008 63.5418 30.008C63.6428 30.008 63.7456 29.9943 63.8478 29.9646C64.4225 29.8004 64.7511 29.2143 64.5823 28.655L64.5778 28.6413C64.409 28.0821 63.8066 27.7624 63.2318 27.9272C62.6577 28.0914 62.3291 28.6776 62.4979 29.2368ZM61.9447 25.8854C61.5427 25.8854 61.156 25.6673 60.9669 25.2932L60.9511 25.2619C60.697 24.7346 60.9307 24.1067 61.4727 23.8595C62.0147 23.6123 62.66 23.8392 62.9141 24.3665L61.9329 24.8142L62.9152 24.3687C63.18 24.8917 62.957 25.5201 62.4201 25.7772C62.2671 25.8508 62.1045 25.8854 61.9447 25.8854ZM56.0613 18.306C56.2736 18.5169 56.5542 18.6224 56.8353 18.6224C57.1092 18.6224 57.383 18.5224 57.5941 18.3208C58.0187 17.9165 58.0283 17.2557 57.619 16.8393C57.213 16.4136 56.5288 16.3877 56.0895 16.7821C55.6497 17.1771 55.6226 17.8445 56.0286 18.2724L56.0613 18.306ZM63.5641 37.6358C63.585 37.0563 64.0836 36.602 64.6792 36.6168C65.2771 36.6339 65.7479 37.1173 65.731 37.699L65.7293 37.7424C65.6971 38.3043 65.2189 38.7388 64.6481 38.7388C64.6272 38.7388 64.6075 38.7383 64.5866 38.7372C63.9927 38.7048 63.537 38.2131 63.5641 37.6358ZM49.1294 13.127L49.1554 13.1407C49.3169 13.2242 49.4902 13.2638 49.6607 13.2638C50.0463 13.2638 50.4195 13.0616 50.6154 12.7073C50.8977 12.1959 50.6989 11.5565 50.175 11.2796L49.6505 12.2025L50.1716 11.2775C49.6466 10.9973 48.9877 11.1846 48.6998 11.6955C48.4124 12.2058 48.6044 12.8474 49.1294 13.127ZM52.8127 15.4528L52.7958 15.4402C52.321 15.0853 52.2312 14.4228 52.5959 13.9609C52.9606 13.4989 53.6409 13.4121 54.1157 13.767L54.1231 13.7719C54.5996 14.124 54.6933 14.7854 54.3314 15.2496C54.118 15.5231 53.7945 15.667 53.467 15.667C53.2384 15.667 53.0086 15.5973 52.8127 15.4528ZM28.3699 5.73816C28.3699 5.11798 28.8876 4.61316 29.5239 4.61316C30.1608 4.61316 30.6785 5.11798 30.6785 5.73816C30.6785 6.35888 30.1608 6.86316 29.5239 6.86316C28.8876 6.86316 28.3699 6.35888 28.3699 5.73816ZM67.3337 52.6903C66.6968 52.6903 66.1791 53.1952 66.1791 53.8153C66.1791 54.4355 66.6968 54.9403 67.3337 54.9403C67.9699 54.9403 68.4877 54.4355 68.4877 53.8153C68.4877 53.1952 67.9699 52.6903 67.3337 52.6903ZM17.2675 62.3253C17.9038 62.3253 18.4215 62.8302 18.4215 63.4503C18.4215 64.0705 17.9038 64.5753 17.2675 64.5753C16.6306 64.5753 16.1129 64.0705 16.1129 63.4503C16.1129 62.8302 16.6306 62.3253 17.2675 62.3253Z" fill="#0E577B"/>
</svg>
