<svg width="65" height="72" viewBox="0 0 65 72" fill="none" xmlns="http://www.w3.org/2000/svg">
<path opacity="0.6" fill-rule="evenodd" clip-rule="evenodd" d="M2.53058 20.1971C2.53058 20.7807 2.04438 21.2539 1.44443 21.2539C0.844625 21.2539 0.358422 20.7807 0.358422 20.1971V3.17025C0.358422 1.42214 1.82021 3.22827e-06 3.61673 3.22827e-06H40.1743C40.4598 -0.000699897 40.7407 0.113488 40.9424 0.309519L54.401 13.4045C54.6023 13.6007 54.7198 13.8739 54.7191 14.1517V28.4701C54.7191 29.0537 54.2329 29.5269 53.6329 29.5269C53.033 29.5269 52.5468 29.0537 52.5468 28.4701V15.2083H42.3466C40.5501 15.2083 39.0883 13.7862 39.0883 12.0381V2.11346H3.61673C3.0178 2.11346 2.53058 2.5875 2.53058 3.17025V20.1971ZM51.0108 13.0949L41.2605 3.60802V12.0381C41.2605 12.6208 41.7477 13.0949 42.3466 13.0949H51.0108ZM24.1399 11.9672C24.7398 11.9672 25.226 12.4404 25.226 13.024C25.226 13.6076 24.7398 14.0808 24.1399 14.0808H7.96034C7.3604 14.0808 6.87419 13.6076 6.87419 13.024C6.87419 12.4404 7.3604 11.9672 7.96034 11.9672H24.1399ZM7.96034 17.4496C7.3604 17.4496 6.87419 17.9228 6.87419 18.5064C6.87419 19.09 7.3604 19.5632 7.96034 19.5632H16.3199C16.9198 19.5632 17.406 19.09 17.406 18.5064C17.406 17.9228 16.9198 17.4496 16.3199 17.4496H7.96034ZM7.96034 55.4319H24.14C24.7398 55.4319 25.226 55.9049 25.226 56.4887C25.226 57.0723 24.7398 57.5455 24.1399 57.5455H7.96034C7.3604 57.5455 6.87419 57.0723 6.87419 56.4887C6.87419 55.9051 7.3604 55.4319 7.96034 55.4319ZM24.14 60.9141H7.96034C7.3604 60.9141 6.87419 61.3874 6.87419 61.9709C6.87419 62.5545 7.3604 63.0277 7.96034 63.0277H24.1399C24.7398 63.0277 25.226 62.5547 25.226 61.9709C25.226 61.3872 24.7398 60.9141 24.14 60.9141ZM54.7181 32.6972V47.2768C60.3482 48.6206 64.5378 53.5718 64.5377 59.4581C64.5377 66.3738 58.7551 72 51.6474 72C51.6161 72 51.585 71.9995 51.5539 71.999C51.5381 71.9988 51.5222 71.9985 51.5063 71.9984C51.5002 71.9985 51.494 71.9988 51.4877 71.9991C51.4783 71.9996 51.4688 72 51.4596 72H3.61573C1.81907 72 0.357422 70.5779 0.357422 68.8298V24.4242C0.357422 23.8405 0.843625 23.3674 1.44357 23.3674C2.04352 23.3674 2.52973 23.8406 2.52973 24.4242V68.8298C2.52973 69.4125 3.01694 69.8866 3.61588 69.8866H44.4944C41.0378 67.6346 38.7572 63.8008 38.7572 59.4581C38.7572 55.6363 40.5238 52.2089 43.3036 49.9066H7.9602C7.36025 49.9066 6.87405 49.4334 6.87405 48.8498V25.734C6.87405 25.1504 7.36025 24.6772 7.9602 24.6772H47.1153C47.7153 24.6772 48.2015 25.1504 48.2015 25.734V47.3722C49.2987 47.0755 50.4543 46.9163 51.6475 46.9163C51.9494 46.9163 52.2489 46.9273 52.5458 46.9473V32.6972C52.5458 32.1136 53.032 31.6404 53.6319 31.6404C54.2319 31.6404 54.7181 32.1136 54.7181 32.6972ZM32.0219 47.7931H37.9394V26.7907H32.0219V39.0489C32.0219 39.6327 31.5357 40.1057 30.9358 40.1057C30.3358 40.1057 29.8496 39.6325 29.8496 39.0489V26.7907H9.04635V47.793H29.8496V43.276C29.8496 42.6924 30.3358 42.2192 30.9358 42.2192C31.5357 42.2192 32.0219 42.6924 32.0219 43.276V47.7931ZM40.1116 26.7908V47.7931H46.0292V26.7908H40.1116ZM40.9294 59.4581C40.9294 65.2084 45.7375 69.8866 51.6475 69.8866C57.5575 69.8866 62.3657 65.2084 62.3657 59.4581C62.3657 53.708 57.5574 49.0298 51.6475 49.0298C45.7375 49.0298 40.9294 53.708 40.9294 59.4581Z" fill="#0E577B"/>
</svg>
