<svg width="36" height="37" viewBox="0 0 36 37" fill="none" xmlns="http://www.w3.org/2000/svg">
<circle cx="18" cy="18.0012" r="17.5" stroke="#F9F9F9"/>
<g clip-path="url(#clip0)">
<path d="M18.0036 12.3528C14.8842 12.3528 12.3588 14.881 12.3588 17.9976C12.3588 21.117 14.887 23.6425 18.0036 23.6425C21.123 23.6425 23.6485 21.1143 23.6485 17.9976C23.6485 14.8782 21.1203 12.3528 18.0036 12.3528ZM18.0036 21.6615C15.9787 21.6615 14.3397 20.0216 14.3397 17.9976C14.3397 15.9736 15.9796 14.3337 18.0036 14.3337C20.0276 14.3337 21.6675 15.9736 21.6675 17.9976C21.6685 20.0216 20.0285 21.6615 18.0036 21.6615Z" fill="#F9F9F9"/>
<path d="M22.5354 7.07155C20.5114 6.97713 15.4982 6.98171 13.4723 7.07155C11.6922 7.15496 10.1219 7.58488 8.856 8.8508C6.74033 10.9665 7.01075 13.8173 7.01075 17.9982C7.01075 22.2772 6.77242 25.062 8.856 27.1456C10.9799 29.2686 13.872 28.9909 18.0034 28.9909C22.2421 28.9909 23.7051 28.9936 25.2038 28.4134C27.2416 27.6223 28.7797 25.8009 28.9301 22.5293C29.0254 20.5044 29.0199 15.492 28.9301 13.4662C28.7486 9.6043 26.676 7.26221 22.5354 7.07155ZM25.7392 25.7459C24.3523 27.1328 22.4282 27.009 17.9768 27.009C13.3935 27.009 11.5556 27.0769 10.2145 25.7321C8.66992 24.1949 8.9495 21.7263 8.9495 17.9835C8.9495 12.919 8.42975 9.27155 13.5127 9.01121C14.6805 8.96996 15.0243 8.95621 17.964 8.95621L18.0052 8.98371C22.8902 8.98371 26.7227 8.47221 26.9528 13.5542C27.0051 14.7138 27.017 15.0621 27.017 17.9973C27.0161 22.5275 27.1023 24.3764 25.7392 25.7459Z" fill="#F9F9F9"/>
<path d="M23.872 13.4492C24.6005 13.4492 25.1911 12.8586 25.1911 12.1301C25.1911 11.4016 24.6005 10.811 23.872 10.811C23.1435 10.811 22.5529 11.4016 22.5529 12.1301C22.5529 12.8586 23.1435 13.4492 23.872 13.4492Z" fill="#F9F9F9"/>
</g>
<defs>
<clipPath id="clip0">
<rect width="22" height="22" fill="white" transform="translate(7 7.00122)"/>
</clipPath>
</defs>
</svg>
