<svg width="87" height="86" viewBox="0 0 87 86" fill="none" xmlns="http://www.w3.org/2000/svg">
<path d="M57.0938 1.34375V4.03125" stroke="#F9F9F9" stroke-width="2" stroke-linecap="round" stroke-linejoin="round"/>
<path d="M80.0808 13.0882L82.0791 11.1801" stroke="#F9F9F9" stroke-width="2" stroke-linecap="round" stroke-linejoin="round"/>
<path d="M69.5322 6.38279L70.6197 3.89685" stroke="#F9F9F9" stroke-width="2" stroke-linecap="round" stroke-linejoin="round"/>
<path d="M44.6554 6.38279L43.5679 3.89685" stroke="#F9F9F9" stroke-width="2" stroke-linecap="round" stroke-linejoin="round"/>
<path d="M46.2188 67.1875C46.2188 67.1875 45.1448 61.6109 42.997 58.8159C38.0625 52.4063 32.625 44.5453 32.625 36.2812C32.625 29.8663 35.2029 23.7141 39.7917 19.1781C44.3805 14.6421 50.6042 12.0937 57.0938 12.0938C63.5833 12.0938 69.807 14.6421 74.3958 19.1781C78.9845 23.7141 81.5625 29.8663 81.5625 36.2812L85.6406 48.375H78.8438V56.4375C78.8438 57.863 78.2709 59.2302 77.2511 60.2382C76.2314 61.2462 74.8484 61.8125 73.4062 61.8125H71.1497C70.2407 61.8124 69.3578 62.1126 68.6411 62.6652C67.9245 63.2178 67.4151 63.9913 67.1939 64.8628V64.8628C66.8098 66.4064 66.6136 67.9898 66.6094 69.5794V72.5625H46.2188" stroke="#F9F9F9" stroke-width="2" stroke-linecap="round" stroke-linejoin="round"/>
<path d="M53.0156 59.125C53.0156 51.0625 53.0156 43 47.5781 37.625H66.6094C61.1719 43 61.1719 51.0625 61.1719 59.125" stroke="#F9F9F9" stroke-width="2" stroke-linecap="round" stroke-linejoin="round"/>
<path d="M46.2188 77.9375C46.2188 79.7194 46.9348 81.4284 48.2095 82.6884C49.4842 83.9484 51.213 84.6562 53.0156 84.6562H59.8125C61.6151 84.6563 63.344 83.9484 64.6186 82.6884C65.8933 81.4284 66.6094 79.7194 66.6094 77.9375V77.9375" stroke="#F9F9F9" stroke-width="2" stroke-linecap="square" stroke-linejoin="round"/>
<path d="M38.0625 12.0938H33.9844C33.2633 12.0938 32.5718 12.3769 32.0619 12.8809C31.5521 13.3849 31.2656 14.0685 31.2656 14.7812V15.91C31.2667 16.4413 31.1085 16.9611 30.8109 17.4036C30.5133 17.846 30.0897 18.1914 29.5936 18.3959L22.6064 21.2447C22.11 21.4488 21.5635 21.5029 21.036 21.4C20.5086 21.2972 20.0238 21.042 19.643 20.6669L18.8409 19.8741C18.5884 19.6242 18.2886 19.426 17.9585 19.2907C17.6285 19.1555 17.2747 19.0859 16.9174 19.0859C16.5601 19.0859 16.2064 19.1555 15.8763 19.2907C15.5463 19.426 15.2464 19.6242 14.9939 19.8741L9.23016 25.5312C8.97738 25.7808 8.77684 26.0772 8.64003 26.4035C8.50321 26.7298 8.43278 27.0795 8.43278 27.4327C8.43278 27.7858 8.50321 28.1356 8.64003 28.4618C8.77684 28.7881 8.97738 29.0845 9.23016 29.3341L10.6711 30.7584C10.8675 30.9481 11.0012 31.1921 11.0546 31.4584C11.108 31.7246 11.0785 32.0006 10.9702 32.25L7.73484 40.0034C7.5279 40.4938 7.17854 40.9126 6.73093 41.2068C6.28331 41.5009 5.75752 41.6574 5.22 41.6562H4.07812C3.35707 41.6562 2.66554 41.9394 2.15568 42.4434C1.64581 42.9474 1.35938 43.631 1.35938 44.3438V52.4062C1.35938 53.119 1.64581 53.8026 2.15568 54.3066C2.66554 54.8106 3.35707 55.0938 4.07812 55.0938H5.22C5.75752 55.0926 6.28331 55.2491 6.73093 55.5432C7.17854 55.8374 7.5279 56.2562 7.73484 56.7466L10.6167 63.6534C10.8232 64.1441 10.8779 64.6843 10.7739 65.2058C10.6698 65.7272 10.4117 66.2064 10.0322 66.5828L9.23016 67.3756C8.97738 67.6252 8.77684 67.9216 8.64003 68.2479C8.50321 68.5741 8.43278 68.9239 8.43278 69.277C8.43278 69.6302 8.50321 69.9799 8.64003 70.3062C8.77684 70.6324 8.97738 70.9288 9.23016 71.1784L14.9531 76.8759C15.2056 77.1258 15.5055 77.324 15.8355 77.4593C16.1656 77.5945 16.5194 77.6641 16.8766 77.6641C17.2339 77.6641 17.5877 77.5945 17.9178 77.4593C18.2478 77.324 18.5477 77.1258 18.8002 76.8759L19.6022 76.0831C19.983 75.708 20.4678 75.4528 20.9953 75.35C21.5227 75.2471 22.0692 75.3012 22.5656 75.5053L29.5528 78.3541C30.0565 78.5524 30.4888 78.895 30.794 79.338C31.0992 79.781 31.2634 80.304 31.2656 80.84V81.9688C31.2656 82.6815 31.5521 83.3651 32.0619 83.8691C32.5718 84.3731 33.2633 84.6562 33.9844 84.6562H39.4219" stroke="#F9F9F9" stroke-width="2" stroke-linecap="square" stroke-linejoin="round"/>
<path d="M23.8026 37.625C21.8155 40.446 20.6483 43.7512 20.4277 47.1818C20.2072 50.6123 20.9417 54.0371 22.5515 57.084C24.1614 60.131 26.585 62.6837 29.5592 64.4649C32.5334 66.2461 35.9444 67.1877 39.4218 67.1875H46.2187" stroke="#F9F9F9" stroke-width="2" stroke-linecap="round" stroke-linejoin="round"/>
</svg>
