<svg width="87" height="86" viewBox="0 0 87 86" fill="none" xmlns="http://www.w3.org/2000/svg">
<path d="M28.5469 71.2188H17.6719L38.0625 14.7812H48.9375L69.3281 71.2188H57.0938L51.6562 56.4375H35.3438" stroke="#F9F9F9" stroke-width="2" stroke-linecap="round" stroke-linejoin="round"/>
<path d="M27.1875 79.2812L51.6562 8.0625" stroke="#F9F9F9" stroke-width="2" stroke-linecap="round" stroke-linejoin="round"/>
<path d="M43.7311 31.1481L49.1822 47.0447" stroke="#F9F9F9" stroke-width="2" stroke-linecap="round" stroke-linejoin="round"/>
<path d="M69.3281 86V83.3125" stroke="#F9F9F9" stroke-width="2" stroke-linejoin="round"/>
<path d="M69.3281 80.625V77.9375" stroke="#F9F9F9" stroke-width="2" stroke-linejoin="round"/>
<path d="M69.3281 51.0625V48.375" stroke="#F9F9F9" stroke-width="2" stroke-linejoin="round"/>
<path d="M69.3281 56.4375V53.75" stroke="#F9F9F9" stroke-width="2" stroke-linejoin="round"/>
<path d="M69.3281 45.6875V43" stroke="#F9F9F9" stroke-width="2" stroke-linejoin="round"/>
<path d="M69.3281 40.3125V37.625" stroke="#F9F9F9" stroke-width="2" stroke-linejoin="round"/>
<path d="M69.3281 34.9375V32.25" stroke="#F9F9F9" stroke-width="2" stroke-linejoin="round"/>
<path d="M69.3281 24.1875V21.5" stroke="#F9F9F9" stroke-width="2" stroke-linejoin="round"/>
<path d="M69.3281 29.5625V26.875" stroke="#F9F9F9" stroke-width="2" stroke-linejoin="round"/>
<path d="M69.3281 8.0625V5.375" stroke="#F9F9F9" stroke-width="2" stroke-linejoin="round"/>
<path d="M69.3281 2.6875V0" stroke="#F9F9F9" stroke-width="2" stroke-linejoin="round"/>
<path d="M17.6719 86V83.3125" stroke="#F9F9F9" stroke-width="2" stroke-linejoin="round"/>
<path d="M17.6719 80.625V77.9375" stroke="#F9F9F9" stroke-width="2" stroke-linejoin="round"/>
<path d="M17.6719 51.0625V48.375" stroke="#F9F9F9" stroke-width="2" stroke-linejoin="round"/>
<path d="M17.6719 56.4375V53.75" stroke="#F9F9F9" stroke-width="2" stroke-linejoin="round"/>
<path d="M17.6719 45.6875V43" stroke="#F9F9F9" stroke-width="2" stroke-linejoin="round"/>
<path d="M17.6719 40.3125V37.625" stroke="#F9F9F9" stroke-width="2" stroke-linejoin="round"/>
<path d="M17.6719 34.9375V32.25" stroke="#F9F9F9" stroke-width="2" stroke-linejoin="round"/>
<path d="M17.6719 24.1875V21.5" stroke="#F9F9F9" stroke-width="2" stroke-linejoin="round"/>
<path d="M17.6719 29.5625V26.875" stroke="#F9F9F9" stroke-width="2" stroke-linejoin="round"/>
<path d="M17.6719 8.0625V5.375" stroke="#F9F9F9" stroke-width="2" stroke-linejoin="round"/>
<path d="M17.6719 2.6875V0" stroke="#F9F9F9" stroke-width="2" stroke-linejoin="round"/>
<path d="M87 14.7812H84.2812" stroke="#F9F9F9" stroke-width="2" stroke-linejoin="round"/>
<path d="M76.125 14.7812H73.4062" stroke="#F9F9F9" stroke-width="2" stroke-linejoin="round"/>
<path d="M81.5625 14.7812H78.8438" stroke="#F9F9F9" stroke-width="2" stroke-linejoin="round"/>
<path d="M70.6875 14.7812H67.9688" stroke="#F9F9F9" stroke-width="2" stroke-linejoin="round"/>
<path d="M65.25 14.7812H62.5312" stroke="#F9F9F9" stroke-width="2" stroke-linejoin="round"/>
<path d="M59.8125 14.7812H57.0938" stroke="#F9F9F9" stroke-width="2" stroke-linejoin="round"/>
<path d="M24.4688 14.7812H21.75" stroke="#F9F9F9" stroke-width="2" stroke-linejoin="round"/>
<path d="M29.9062 14.7812H27.1875" stroke="#F9F9F9" stroke-width="2" stroke-linejoin="round"/>
<path d="M19.0312 14.7812H16.3125" stroke="#F9F9F9" stroke-width="2" stroke-linejoin="round"/>
<path d="M13.5938 14.7812H10.875" stroke="#F9F9F9" stroke-width="2" stroke-linejoin="round"/>
<path d="M8.15625 14.7812H5.4375" stroke="#F9F9F9" stroke-width="2" stroke-linejoin="round"/>
<path d="M2.71875 14.7812H0" stroke="#F9F9F9" stroke-width="2" stroke-linejoin="round"/>
<path d="M84.2812 71.2188H81.5625" stroke="#F9F9F9" stroke-width="2" stroke-linejoin="round"/>
<path d="M78.8438 71.2188H76.125" stroke="#F9F9F9" stroke-width="2" stroke-linejoin="round"/>
<path d="M50.2969 71.2188H47.5781" stroke="#F9F9F9" stroke-width="2" stroke-linejoin="round"/>
<path d="M44.8594 71.2188H42.1406" stroke="#F9F9F9" stroke-width="2" stroke-linejoin="round"/>
<path d="M39.4219 71.2188H36.7031" stroke="#F9F9F9" stroke-width="2" stroke-linejoin="round"/>
<path d="M10.875 71.2188H8.15625" stroke="#F9F9F9" stroke-width="2" stroke-linejoin="round"/>
<path d="M5.4375 71.2188H2.71875" stroke="#F9F9F9" stroke-width="2" stroke-linejoin="round"/>
</svg>
