<svg width="86" height="86" viewBox="0 0 86 86" fill="none" xmlns="http://www.w3.org/2000/svg">
<path d="M33.594 34.9375V32.25C33.594 32.25 37.6924 28.2188 46.3193 28.2188C54.9462 28.2188 59.1252 32.25 59.1252 32.25V34.9375" stroke="#F9F9F9" stroke-width="2" stroke-linejoin="round"/>
<path d="M17.4688 59.125V81.9688C17.4688 82.6815 17.7519 83.3651 18.2559 83.8691C18.7599 84.3731 19.4435 84.6562 20.1563 84.6562H73.9063C74.619 84.6562 75.3026 84.3731 75.8066 83.8691C76.3106 83.3651 76.5938 82.6815 76.5938 81.9688V68.5312" stroke="#F9F9F9" stroke-width="2" stroke-linejoin="round"/>
<path d="M49.7188 60.4688H44.3438C43.6016 60.4688 43 61.0704 43 61.8125V68.5312C43 69.2734 43.6016 69.875 44.3438 69.875H49.7188C50.4609 69.875 51.0625 69.2734 51.0625 68.5312V61.8125C51.0625 61.0704 50.4609 60.4688 49.7188 60.4688Z" stroke="#F9F9F9" stroke-width="2" stroke-linejoin="round"/>
<path d="M51.0627 64.5C59.4429 64.2347 67.7693 63.0587 75.8952 60.9928C76.4779 60.8488 76.9955 60.5138 77.3657 60.0414C77.7359 59.5689 77.9372 58.9861 77.9377 58.3859V41.6562C77.9377 40.9435 77.6546 40.2599 77.1506 39.7559C76.6466 39.2519 75.963 38.9688 75.2502 38.9688H18.8127C18.0999 38.9688 17.4164 39.2519 16.9124 39.7559C16.4084 40.2599 16.1252 40.9435 16.1252 41.6562V57.1631C16.1246 57.7355 16.3068 58.2931 16.6451 58.7548C16.9835 59.2164 17.4604 59.558 18.0065 59.7297C22.4677 61.0734 33.9702 64.4194 43.0002 64.5" stroke="#F9F9F9" stroke-width="2" stroke-linecap="round" stroke-linejoin="round"/>
<path d="M44.747 28.2591L41.9117 20.1966L1.3439 34.4403L17.4689 80.2488" stroke="#F9F9F9" stroke-width="2" stroke-linejoin="round"/>
<path d="M59.5416 12.5372L46.3191 14.9022C46.1453 14.9332 45.9671 14.9296 45.7947 14.8916C45.6222 14.8537 45.459 14.7821 45.3142 14.681C45.1694 14.5799 45.046 14.4513 44.951 14.3025C44.856 14.1537 44.7912 13.9876 44.7604 13.8138L44.2901 11.1263" stroke="#F9F9F9" stroke-width="2" stroke-linecap="round" stroke-linejoin="round"/>
<path d="M61.3827 22.6153L59.488 11.9728L42.5836 1.34375L10.8308 7.00094L13.4108 21.5" stroke="#F9F9F9" stroke-width="2" stroke-linecap="round" stroke-linejoin="round"/>
<path d="M67.873 38.9419L77.0508 29.7506L84.6564 10.75L65.6558 18.3556L54.4489 29.5625" stroke="#F9F9F9" stroke-width="2" stroke-linecap="round" stroke-linejoin="round"/>
<path d="M80.8537 12.6447L82.7618 14.5528" stroke="#F9F9F9" stroke-width="2" stroke-linecap="round" stroke-linejoin="round"/>
<path d="M76.1103 30.7047L70.3994 25.0072L65.8441 29.5625" stroke="#F9F9F9" stroke-width="2" stroke-linecap="round" stroke-linejoin="round"/>
</svg>
