<svg width="86" height="84" viewBox="0 0 86 84" fill="none" xmlns="http://www.w3.org/2000/svg">
<path d="M35.018 8.46508C35.068 7.32814 35.3764 6.21805 35.9193 5.22066C36.4622 4.22328 37.2251 3.36532 38.1489 2.71315V2.71315C39.7467 1.59449 41.7173 1.15789 43.6323 1.49831C45.5473 1.83872 47.2517 2.92862 48.3749 4.53098L52.4061 9.49609" stroke="#F9F9F9" stroke-width="2" stroke-linecap="round" stroke-linejoin="round"/>
<path d="M75.2501 52.9069L62.0142 49.0407C61.1759 48.8139 60.3015 48.7571 59.4413 48.8734C58.5812 48.9897 57.7524 49.2769 57.0027 49.7183C56.2531 50.1598 55.5976 50.7468 55.0739 51.4454C54.5502 52.144 54.1688 52.9405 53.9517 53.7887V53.7887C53.7252 54.635 53.6675 55.5183 53.7819 56.3873C53.8963 57.2563 54.1805 58.0937 54.618 58.8509C55.0555 59.6081 55.6377 60.2701 56.3307 60.7984C57.0236 61.3266 57.8136 61.7107 58.6548 61.9283C58.6548 61.9283 72.5626 66.3779 77.1851 65.0213C83.0707 63.2984 84.6564 59.2015 84.6564 55.5252C84.7264 53.2132 84.2795 50.915 83.349 48.8013C82.4184 46.6876 81.0281 44.8127 79.2814 43.3159L73.9064 37.8895" stroke="#F9F9F9" stroke-width="2" stroke-linecap="round" stroke-linejoin="round"/>
<path d="M72.5626 70.4477C72.1487 71.2376 71.5843 71.9372 70.9017 72.5062C70.2192 73.0752 69.432 73.5025 68.5854 73.7634C67.7388 74.0244 66.8495 74.1139 65.9685 74.0268C65.0875 73.9396 64.2323 73.6776 63.452 73.2558L38.5792 61.5891C37.7949 61.1713 37.1004 60.6009 36.5356 59.9108C35.9708 59.2207 35.5469 58.4246 35.2883 57.5683C35.0297 56.712 34.9416 55.8125 35.029 54.9217C35.1164 54.0309 35.3776 53.1663 35.7976 52.3779V52.3779C36.2114 51.5844 36.777 50.8817 37.4616 50.3103C38.1462 49.7389 38.9362 49.3102 39.786 49.0491C40.6357 48.7879 41.5283 48.6995 42.4122 48.7889C43.296 48.8782 44.1535 49.1436 44.9351 49.5697L48.3751 51.5504" stroke="#F9F9F9" stroke-width="2" stroke-linecap="round" stroke-linejoin="round"/>
<path d="M33.5936 52.907L32.5321 52.5271C31.4903 52.3345 30.4164 52.4266 29.4217 52.7939C28.427 53.1613 27.5477 53.7904 26.8749 54.6163V54.6163C25.8889 55.8544 25.4299 57.437 25.5987 59.0165C25.7675 60.596 26.5503 62.0434 27.7752 63.0407L50.5786 78.5736C51.8034 79.5706 53.3699 80.0363 54.9344 79.8684C56.4989 79.7005 57.9335 78.9129 58.9233 77.6783V77.6783C59.6299 76.8002 60.0728 75.7364 60.1999 74.6124C60.3664 73.8424 60.2566 73.0377 59.8898 72.3419C59.5231 71.6462 58.9234 71.1046 58.1977 70.8139" stroke="#F9F9F9" stroke-width="2" stroke-linecap="round" stroke-linejoin="round"/>
<path d="M49.3559 79.7132C48.9955 80.3867 48.501 80.9776 47.9034 81.4488C47.3058 81.9199 46.6181 82.2612 45.8836 82.451C45.149 82.6409 44.3835 82.6752 43.6352 82.5519C42.8869 82.4286 42.1719 82.1503 41.5353 81.7345L25.6387 70.312C25.1808 69.7847 24.8328 69.1697 24.6154 68.5037C24.398 67.8376 24.3157 67.1342 24.3734 66.4354C24.4311 65.7366 24.6276 65.0566 24.9512 64.4361C25.2748 63.8156 25.7188 63.2672 26.2568 62.8237" stroke="#F9F9F9" stroke-width="2" stroke-linecap="round" stroke-linejoin="round"/>
<path d="M41.6562 25.7209H64.5" stroke="#F9F9F9" stroke-width="2" stroke-linecap="round" stroke-linejoin="round"/>
<path d="M41.6562 36.5736H52.4062" stroke="#F9F9F9" stroke-width="2" stroke-linecap="round" stroke-linejoin="round"/>
<path d="M17.4688 58.3333H4.03125C3.31848 58.3333 2.6349 58.0475 2.1309 57.5386C1.6269 57.0298 1.34375 56.3397 1.34375 55.6201V12.2093C1.34375 11.4897 1.6269 10.7996 2.1309 10.2908C2.6349 9.78195 3.31848 9.49609 4.03125 9.49609H71.2188C71.9315 9.49609 72.6151 9.78195 73.1191 10.2908C73.6231 10.7996 73.9062 11.4897 73.9062 12.2093V51.5504" stroke="#F9F9F9" stroke-width="2" stroke-linecap="square" stroke-linejoin="round"/>
<path d="M10.75 25.7209L21.5 18.938L32.25 25.7209V36.5736L21.5 43.3566L10.75 36.5736V25.7209Z" stroke="#F9F9F9" stroke-width="2" stroke-linecap="round" stroke-linejoin="round"/>
<path d="M16.125 28.4341L21.5 31.1473L26.875 28.4341" stroke="#F9F9F9" stroke-width="2" stroke-linecap="round" stroke-linejoin="round"/>
<path d="M21.5 36.5736V31.1472" stroke="#F9F9F9" stroke-width="2" stroke-linecap="round" stroke-linejoin="round"/>
</svg>
