<svg width="86" height="87" viewBox="0 0 86 87" fill="none" xmlns="http://www.w3.org/2000/svg">
<path d="M5.375 69.3281V35.3438C5.375 34.2622 5.79972 33.2249 6.55573 32.4601C7.31173 31.6953 8.3371 31.2656 9.40625 31.2656" stroke="#F9F9F9" stroke-width="2" stroke-linecap="square" stroke-linejoin="round"/>
<path d="M80.625 69.3281V35.3438C80.625 34.2622 80.2003 33.2249 79.4443 32.4601C78.6883 31.6953 77.6629 31.2656 76.5938 31.2656" stroke="#F9F9F9" stroke-width="2" stroke-linecap="square" stroke-linejoin="round"/>
<path d="M75.25 85.6406H10.75C8.25531 85.6406 5.86279 84.6381 4.09878 82.8536C2.33476 81.069 1.34375 78.6487 1.34375 76.125H34.9375V78.8438H51.0625V76.125H84.6562C84.6563 78.6487 83.6652 81.069 81.9012 82.8536C80.1372 84.6381 77.7447 85.6406 75.25 85.6406V85.6406Z" stroke="#F9F9F9" stroke-width="2" stroke-linecap="round" stroke-linejoin="round"/>
<path d="M63.1562 43.5L69.875 47.5781L43 63.8906L16.125 47.5781L22.8438 43.5" stroke="#F9F9F9" stroke-width="2" stroke-linecap="round" stroke-linejoin="round"/>
<path d="M16.125 16.3125L43 32.625L69.875 16.3125L43 1.35938L16.125 16.3125Z" stroke="#F9F9F9" stroke-width="2" stroke-linecap="round" stroke-linejoin="round"/>
<path d="M69.875 16.3125V47.5781" stroke="#F9F9F9" stroke-width="2" stroke-linecap="round" stroke-linejoin="round"/>
<path d="M43 16.3125L28.2188 24.4688V40.7812L43 50.2969L57.7812 40.7812V24.4688L43 16.3125Z" stroke="#F9F9F9" stroke-width="2" stroke-linejoin="round"/>
<path d="M43 32.625V63.8906" stroke="#F9F9F9" stroke-width="2" stroke-linecap="round" stroke-linejoin="round"/>
<path d="M43 1.35938V8.15625" stroke="#F9F9F9" stroke-width="2" stroke-linecap="round" stroke-linejoin="round"/>
<path d="M16.125 16.3125V47.5781" stroke="#F9F9F9" stroke-width="2" stroke-linecap="round" stroke-linejoin="round"/>
</svg>
