<svg width="36" height="37" viewBox="0 0 36 37" fill="none" xmlns="http://www.w3.org/2000/svg">
<circle cx="18" cy="18.0012" r="17.5" stroke="#F9F9F9"/>
<g clip-path="url(#clip0)">
<path d="M27.1367 13.5215C28.0721 12.8862 28.8589 12.0933 29.5 11.1803V11.1794C28.6442 11.5378 27.7338 11.7761 26.7831 11.8916C27.7606 11.3334 28.5072 10.4561 28.8579 9.39922C27.9465 9.91897 26.9403 10.2856 25.8679 10.491C25.0025 9.60914 23.7692 9.06372 22.4237 9.06372C19.8132 9.06372 17.7115 11.0905 17.7115 13.5746C17.7115 13.9321 17.7432 14.2759 17.8208 14.6031C13.9012 14.4198 10.432 12.6231 8.10137 9.88505C7.69504 10.5606 7.45546 11.3334 7.45546 12.1648C7.45546 13.7268 8.29592 15.111 9.55037 15.9131C8.79233 15.8993 8.04962 15.6885 7.42 15.3576V15.4071C7.42 17.5988 9.05396 19.4193 11.1978 19.8391C10.8135 19.94 10.3956 19.9876 9.9615 19.9876C9.65962 19.9876 9.35487 19.9711 9.06929 19.9106C9.67975 21.6963 11.4143 23.0099 13.4747 23.053C11.8705 24.2529 9.83308 24.9761 7.62796 24.9761C7.24175 24.9761 6.87088 24.9596 6.5 24.9147C8.58917 26.2026 11.0636 26.9387 13.7335 26.9387C22.0547 26.9387 27.4779 20.2984 27.1367 13.5215Z" fill="#F9F9F9"/>
</g>
<defs>
<clipPath id="clip0">
<rect width="23" height="22" fill="white" transform="translate(6 7.00122)"/>
</clipPath>
</defs>
</svg>
